<?xml version="1.0" encoding="UTF-8"?>
<svg width="28px" height="27px" viewBox="0 0 28 27" version="1.1" xmlns="http://www.w3.org/2000/svg" xmlns:xlink="http://www.w3.org/1999/xlink">
    <!-- Generator: sketchtool 48.2 (47327) - http://www.bohemiancoding.com/sketch -->
    <title>EE9FE0E7-B603-40C0-9731-F79EBF6EA1B8</title>
    <desc>Created with sketchtool.</desc>
    <defs></defs>
    <g id="Main-cards-2" stroke="none" stroke-width="1" fill="none" fill-rule="evenodd" transform="translate(-496.000000, -286.000000)">
        <g id="R-Cube" transform="translate(496.000000, 286.000000)">
            <g id="Group-3" fill="#4D4D4D">
                <path d="M26,0.00920180288 C26.6461538,0.00920180288 27.1738462,0.536894111 27.1738462,1.18233001 L27.1738462,25.8268718 C27.1738462,26.4715897 26.6461538,27 26,27 L1.17233846,27.0002872 C0.585176007,27.0002872 0.0950775255,26.5620106 0.01225245,25.9967515 C0.00413367786,25.941343 -7.17948717e-05,25.8847145 -7.17948717e-05,25.827159 L-7.17948718e-05,1.18261719 C-7.17948718e-05,0.53718129 0.527620513,0.00948898237 1.17233846,0.00948898237 L26,0.00920180288 Z" id="Fill-1"></path>
            </g>
            <rect id="Rectangle" fill="#4D4D4D" x="0" y="0" width="27" height="27" rx="1"></rect>
            <rect id="Rectangle" fill="#FFFFFF" x="2" y="2" width="7" height="7" rx="1"></rect>
            <rect id="Rectangle" fill="#FFFFFF" x="18" y="18" width="7" height="7" rx="1"></rect>
            <rect id="Rectangle" fill="#FFC773" x="2" y="10" width="7" height="7" rx="1"></rect>
            <rect id="Rectangle" fill="#FFC773" x="18" y="2" width="7" height="7" rx="1"></rect>
            <rect id="Rectangle" fill="#FFC773" x="10" y="18" width="7" height="7" rx="1"></rect>
            <rect id="Rectangle" fill="#D65442" x="10" y="10" width="7" height="7" rx="1"></rect>
            <rect id="Rectangle" fill="#7D96BD" x="18" y="10" width="7" height="7" rx="1"></rect>
            <rect id="Rectangle" fill="#2A8275" x="10" y="2" width="7" height="7" rx="1"></rect>
            <rect id="Rectangle" fill="#2A8275" x="2" y="18" width="7" height="7" rx="1"></rect>
        </g>
    </g>
</svg>