<?xml version="1.0" encoding="UTF-8"?>
<svg width="41px" height="60px" viewBox="0 0 41 60" version="1.1" xmlns="http://www.w3.org/2000/svg" xmlns:xlink="http://www.w3.org/1999/xlink">
    <!-- Generator: sketchtool 48.2 (47327) - http://www.bohemiancoding.com/sketch -->
    <title>E53B660C-2824-4434-B1A0-70FB10F60EEE</title>
    <desc>Created with sketchtool.</desc>
    <defs>
        <polygon id="path-1" points="0 0.177727273 33.2300785 0.177727273 33.2300785 41.9186364 0 41.9186364"></polygon>
        <path d="M16.6165703,0.232272727 C6.64425434,1.08522727 -0.717835838,9.51704545 0.173049711,19.0647727 C1.06417264,28.6127273 9.87095491,35.6613636 19.8432709,34.8081818 C29.8158243,33.9554545 37.1779145,25.5236364 36.2867915,15.9756818 C35.4448062,6.95295455 27.5343692,0.162272727 18.2506913,0.1625 C17.7104154,0.1625 17.1649171,0.185454545 16.6165703,0.232272727" id="path-3"></path>
        <path d="M16.6165703,0.232272727 C6.64425434,1.08522727 -0.717835838,9.51704545 0.173049711,19.0647727 C1.06417264,28.6127273 9.87095491,35.6613636 19.8432709,34.8081818 C29.8158243,33.9554545 37.1779145,25.5236364 36.2867915,15.9756818 C35.4448062,6.95295455 27.5343692,0.162272727 18.2506913,0.1625 C17.7104154,0.1625 17.1649171,0.185454545 16.6165703,0.232272727 Z" id="path-5"></path>
        <path d="M16.6165703,0.232272727 C6.64425434,1.08522727 -0.717835838,9.51704545 0.173049711,19.0647727 C1.06417264,28.6127273 9.87095491,35.6613636 19.8432709,34.8081818 C29.8158243,33.9554545 37.1779145,25.5236364 36.2867915,15.9756818 C35.4448062,6.95295455 27.5343692,0.162272727 18.2506913,0.1625 C17.7104154,0.1625 17.1649171,0.185454545 16.6165703,0.232272727" id="path-7"></path>
        <path d="M16.6165703,0.232272727 C6.64425434,1.08522727 -0.717835838,9.51704545 0.173049711,19.0647727 C1.06417264,28.6127273 9.87095491,35.6613636 19.8432709,34.8081818 C29.8158243,33.9554545 37.1779145,25.5236364 36.2867915,15.9756818 C35.4448062,6.95295455 27.5343692,0.162272727 18.2506913,0.1625 C17.7104154,0.1625 17.1649171,0.185454545 16.6165703,0.232272727" id="path-9"></path>
    </defs>
    <g id="Main-cards-2" stroke="none" stroke-width="1" fill="none" fill-rule="evenodd" transform="translate(-727.000000, -425.000000)">
        <g id="Globe" transform="translate(727.000000, 425.000000)">
            <polygon id="Fill-1" fill="#242B57" points="21.9903692 57.7179545 24.7434975 57.7179545 24.7434975 43.4293182 21.9903692 43.4293182"></polygon>
            <g id="Group-13" transform="translate(0.000000, 0.203182)">
                <g id="Group-4" transform="translate(0.000000, 2.272727)">
                    <mask id="mask-2" fill="white">
                        <use xlink:href="#path-1"></use>
                    </mask>
                    <g id="Clip-3"></g>
                    <path d="M33.2300785,39.6102273 C32.979643,39.7286364 32.7289702,39.8443182 32.4754488,39.9518182 C32.4726002,39.9545455 32.4695143,39.9572727 32.4666657,39.9545455 C31.8653833,40.2170455 31.2550804,40.4540909 30.6390804,40.66 C28.174843,41.4984091 25.6042596,41.9186364 23.0248931,41.9186364 C20.5575698,41.9186364 18.0817008,41.535 15.6732476,40.7588636 C9.85436208,38.885 5.14380177,34.9534091 2.41108809,29.6872727 C-0.321388208,24.4206818 -0.74582289,18.4488636 1.21160909,12.8777273 C2.86804378,8.16454545 6.0605617,4.21068182 10.3348183,1.51818182 C10.8803166,1.17681818 11.4462295,0.852272727 12.02686,0.552954545 C12.0297085,0.550227273 12.0327945,0.5475 12.035643,0.5475 C12.2803813,0.420454545 12.5279682,0.296136364 12.7786411,0.177727273 L13.695401,1.94727273 C13.4447282,2.06568182 13.1971413,2.19 12.9552515,2.31704545 C12.9524029,2.31977273 12.9495544,2.31977273 12.9464684,2.32272727 C12.365838,2.62727273 11.8027736,2.95477273 11.2603613,3.30477273 C7.47558135,5.74886364 4.64554204,9.29340909 3.16595514,13.5070455 C1.38537094,18.5788636 1.77158751,24.0143182 4.25956285,28.8065909 C6.74730081,33.6018182 11.0334264,37.1802273 16.3305517,38.8877273 C20.731569,40.3045455 25.3920422,40.2875 29.7135374,38.8763636 C30.332386,38.6761364 30.9455374,38.4445455 31.5470573,38.185 C31.5499058,38.185 31.5529918,38.185 31.5558403,38.1793182 C31.8093617,38.0747727 32.0628831,37.9590909 32.3133185,37.8406818 L33.2300785,39.6102273 Z" id="Fill-2" fill="#242B57" mask="url(#mask-2)"></path>
                </g>
                <path d="M34.4992758,44.0116364 C34.0133598,44.2427727 33.4234716,44.0527727 33.1822939,43.5875455 L11.3300797,1.45890909 C11.0886647,0.993681818 11.287114,0.428909091 11.77303,0.198 C12.2591834,-0.0331363636 12.8488342,0.156863636 13.0902492,0.622090909 L34.9422261,42.7505 C35.1836412,43.2159545 34.9851918,43.7805 34.4992758,44.0116364" id="Fill-7" fill="#242B57"></path>
            </g>
            <g id="Group-26" transform="translate(4.510212, 4.975909)">
                <g id="Group-16">
                    <mask id="mask-4" fill="white">
                        <use xlink:href="#path-3"></use>
                    </mask>
                    <g id="Clip-15"></g>
                    <path d="M36.2868153,15.9756364 C37.1777008,25.5235909 29.815848,33.9551818 19.8432946,34.8081364 C9.87074127,35.6613182 1.06419638,28.6129091 0.173073449,19.0649545 C-0.7178121,9.51722727 6.64404069,1.08540909 16.6165941,0.232227273 C26.5891474,-0.620727273 35.3956923,6.42790909 36.2868153,15.9756364" id="Fill-14" fill="#1294B2" mask="url(#mask-4)"></path>
                </g>
                <g id="Group-19">
                    <mask id="mask-6" fill="white">
                        <use xlink:href="#path-5"></use>
                    </mask>
                    <g id="Clip-18"></g>
                    <path d="M15.9621148,-4.13843182 C15.9756455,-3.98115909 15.9310181,-3.25297727 15.8638397,-2.33434091 C15.6480617,0.620886364 17.608817,3.01293182 20.9682127,3.88520455 C24.4294443,4.78406818 25.5740886,7.89520455 23.5433064,10.88475 L22.391778,12.57975 C21.5545403,13.81225 21.3178728,15.1315682 21.732575,16.2531591 C22.5797827,18.5452045 25.8795961,19.4370227 29.2169156,18.2765682 L37.7611561,15.3052045 L37.2586235,0.95225 L15.9621148,-4.13843182 Z" id="Fill-17" fill="#BEDB42" mask="url(#mask-6)"></path>
                </g>
                <g id="Group-22">
                    <mask id="mask-8" fill="white">
                        <use xlink:href="#path-7"></use>
                    </mask>
                    <g id="Clip-21"></g>
                    <path d="M7.46883977,10.6700227 L10.613407,12.0811591 C13.5500297,13.3988864 14.5847673,16.9025227 12.8037084,19.4975227 L12.2313862,20.3311591 C11.0038964,22.1193409 11.0734486,24.4513864 12.4053854,26.1695682 C14.0174301,28.2493409 13.7449184,31.1559318 11.771582,32.9272955 L11.294449,33.35525 C8.6168074,35.7588864 4.26207908,34.9088864 2.78059314,31.6938864 L-1.50387083,22.39525 C-2.04841958,21.2134318 -2.1039664,19.87775 -1.65959183,18.65775 L0.181286782,13.6068409 C1.22124671,10.7534318 4.61055229,9.38752273 7.46883977,10.6700227" id="Fill-20" fill="#83B232" mask="url(#mask-8)"></path>
                </g>
                <g id="Group-25">
                    <mask id="mask-10" fill="white">
                        <use xlink:href="#path-9"></use>
                    </mask>
                    <g id="Clip-24"></g>
                    <path d="M20.9831914,27.2022273 C11.1321763,28.0449545 2.43292701,21.0822273 1.55296092,11.6506364 C0.672757457,2.21927273 7.94488077,-6.10959091 17.7956584,-6.95231818 C27.6466734,-7.79481818 36.3459228,-0.832318182 37.2261262,8.59904545 C38.1063297,18.0306364 30.833969,26.3595 20.9831914,27.2022273 Z" id="Fill-23" fill="#33A3BD" mask="url(#mask-10)"></path>
                    <path d="M19.7564088,-1.33833759 C16.9564088,-1.33833759 17.0339498,-1.40578673 16.9714666,-0.532627418 C16.7707698,2.27630148 18.5944831,4.54992884 21.7190824,5.37901975 C24.9383999,6.23338518 26.0030422,9.1905049 24.1141964,12.0320531 L23.0431512,13.6431422 C22.26443,14.8146273 22.0443039,16.0686327 22.4300214,17.1346993 C23.2180157,19.3132772 26.2871971,20.1609459 29.391263,19.0579396 L37.3383254,16.2336732 C36.1948255,11.185666 34.378631,7.4495412 31.8897422,5.02529877 C27.6183698,0.864871154 22.5564088,-1.33833759 19.7564088,-1.33833759 Z" id="Fill-1" fill="#BEDB42" mask="url(#mask-10)"></path>
                </g>
            </g>
            <g id="Group-33" transform="translate(5.934489, 14.975909)">
                <path d="M21.4408592,12.7907045 C20.8659259,12.9157045 17.2321193,12.0882045 17.0407914,14.7963864 C16.8497008,17.5045682 18.7356815,18.6891136 22.112406,18.4004773 C25.4888931,18.1113864 28.1888484,15.3304773 27.8714719,13.5157045 C27.5540954,11.7011591 25.2118711,11.9722955 21.4408592,12.7907045" id="Fill-27" fill="#91BD5C"></path>
                <path d="M24.4087923,44.9999545 L9.8664447,44.9999545 C9.16403854,44.9999545 8.5891052,44.4497273 8.5891052,43.777 C8.5891052,43.1042727 9.16403854,42.5540455 9.8664447,42.5540455 L24.4087923,42.5540455 C25.1111985,42.5540455 25.6861318,43.1042727 25.6861318,43.777 C25.6861318,44.4497273 25.1111985,44.9999545 24.4087923,44.9999545" id="Fill-29" fill="#242B57"></path>
                <path d="M0.123176262,1.58254545 C0.125312678,1.60527273 0.126499576,1.628 0.128635992,1.65072727 C0.72896894,8.08322727 4.96690651,13.3664091 10.7264472,15.8091364 C9.64613272,14.1350455 9.66322405,11.9973182 10.8069188,10.3311818 L11.379241,9.49754545 C13.1605373,6.90254545 12.1257998,3.39890909 9.18917703,2.08118182 L6.04437241,0.670045455 C3.98795314,-0.252681818 1.65664832,0.195727273 0.123176262,1.58254545" id="Fill-31" fill="#BEDB42"></path>
            </g>
        </g>
    </g>
</svg>