<?xml version="1.0" encoding="UTF-8"?>
<svg width="26px" height="64px" viewBox="0 0 26 64" version="1.1" xmlns="http://www.w3.org/2000/svg" xmlns:xlink="http://www.w3.org/1999/xlink">
    <!-- Generator: sketchtool 48.2 (47327) - http://www.bohemiancoding.com/sketch -->
    <title>6D4E0AAE-7F60-4D66-93A6-710F794C7747</title>
    <desc>Created with sketchtool.</desc>
    <defs></defs>
    <g id="Main-cards" stroke="none" stroke-width="1" fill="none" fill-rule="evenodd" transform="translate(-263.000000, -593.000000)">
        <g id="Plant" transform="translate(263.000000, 593.000000)">
            <polygon id="Page-1" fill="#A35563" points="0 49 2.72966812 63.60815 18.8188231 63.60815 21.6207046 49"></polygon>
            <path d="M24.7639321,32.0061732 C24.1939321,30.8061732 23.2139321,31.0861732 22.0839321,31.2361732 C21.0139321,31.3861732 19.9139321,31.7061732 18.8639321,32.1561732 C17.9939321,32.4961732 17.1539321,32.9261732 16.3939321,33.4061732 C15.2339321,34.1461732 13.2539321,35.5861732 12.7339321,37.1061732 L12.5439321,37.0461732 C12.7839321,36.2861732 13.0539321,35.4961732 13.3539321,34.6661732 C14.0839321,32.6361732 14.7039321,30.6961732 15.2139321,28.7761732 L15.4839321,28.8461732 C15.8339321,28.6261732 16.1839321,28.4161732 16.6039321,28.2061732 C18.2739321,27.5561732 19.6039321,26.8861732 20.6839321,25.7661732 C21.2439321,25.1961732 21.7239321,24.5061732 22.1539321,23.6361732 C23.0739321,21.8861732 24.1239321,19.8461732 24.3339321,17.8761732 C24.7639321,14.2961732 21.7339321,15.5561732 20.1239321,17.1761732 C19.7739321,17.5161732 19.4239321,17.9161732 19.0739321,18.3561732 C17.9539321,19.7561732 16.8939321,21.5361732 16.4339321,23.0661732 C16.7139321,21.3561732 16.9039321,19.6061732 17.0239321,17.7861732 C17.0939321,16.5761732 17.1339321,15.3361732 17.1439321,14.0561732 C18.4239321,11.3261732 19.6439321,8.95617319 19.4939321,6.09617319 C19.4739321,5.30617319 19.3339321,4.48617319 19.0639321,3.60617319 C18.8439321,2.78617319 18.3639321,1.41617319 17.7039321,0.616173194 C17.1439321,-0.0838268063 16.4539321,-0.333826806 15.6939321,0.656173194 C14.4939321,2.20617319 13.5839321,4.73617319 13.5839321,6.62617319 C13.5839321,7.10617319 13.6539321,7.58617319 13.7739321,8.06617319 C14.2439321,9.99617319 15.4639321,11.8461732 15.6539321,13.7261732 L15.6539321,13.7361732 C15.6739321,14.0461732 15.6839321,14.3661732 15.6439321,14.6761732 L15.6439321,14.7061732 C15.6239321,16.0161732 15.5639321,17.2861732 15.4639321,18.5261732 C15.3939321,19.4961732 15.2939321,20.4361732 15.1739321,21.3761732 C15.0039321,22.7461732 14.7739321,24.0861732 14.5039321,25.4161732 L14.4239321,25.3961732 C14.4939321,23.7061732 13.7939321,22.0961732 13.1639321,20.5461732 C13.0639321,20.3161732 12.9539321,20.0661732 12.8439321,19.8061732 C12.8239321,19.7461732 12.7939321,19.6861732 12.7639321,19.6261732 C12.4439321,18.8561732 12.0639321,17.9961732 11.6139321,17.1761732 C10.9339321,15.9361732 10.1039321,14.8061732 9.08393208,14.2961732 C6.55393208,12.9561732 5.36393208,14.9961732 5.14393208,17.3861732 C4.99393208,19.3961732 5.63393208,21.2561732 6.63393208,22.9661732 C6.98393208,23.5861732 7.39393208,24.1861732 7.82393208,24.7661732 C7.84393208,24.7861732 7.85393208,24.8061732 7.87393208,24.8261732 C8.77393208,26.0061732 9.94393208,27.3761732 11.3339321,28.0661732 C12.0339321,28.5161732 12.8539321,28.7961732 13.5739321,29.2161732 C13.3339321,30.0761732 13.0739321,30.9461732 12.7939321,31.8261732 C12.5039321,32.7161732 12.1939321,33.6261732 11.8639321,34.5561732 C11.7139321,34.9661732 11.5839321,35.3561732 11.4539321,35.7461732 L11.4039321,35.7261732 C11.4739321,33.9061732 11.2639321,32.7761732 10.2139321,31.2361732 C9.85393208,30.6861732 9.40393208,30.0961732 8.89393208,29.5361732 C8.67393208,29.2861732 8.43393208,29.0361732 8.18393208,28.8061732 C7.28393208,27.9361732 6.25393208,27.2061732 5.21393208,26.8761732 C3.32393208,26.2361732 2.26393208,26.0961732 2.05393208,28.2761732 C1.77393208,30.5961732 2.61393208,32.7061732 3.88393208,34.6061732 C4.20393208,35.0761732 4.64393208,35.6461732 5.16393208,36.2261732 C6.59393208,37.8061732 8.64393208,39.4161732 10.4839321,38.9161732 C10.2339321,39.8561732 10.0439321,40.7761732 9.93393208,41.6961732 C9.85393208,42.2861732 9.80393208,42.8661732 9.78393208,43.4661732 L9.71393208,43.4661732 C9.47393208,43.0561732 8.61393208,42.5161732 7.58393208,42.0761732 C7.11393208,41.8661732 6.61393208,41.6761732 6.12393208,41.5361732 C4.87393208,41.1461732 3.68393208,41.0261732 3.25393208,41.4961732 C2.05393208,42.7461732 4.73393208,45.1261732 5.81393208,45.8161732 C5.88393208,45.8661732 5.94393208,45.8961732 5.99393208,45.9261732 C6.97393208,46.3461732 8.73393208,46.6961732 9.71393208,46.2761732 L9.88393208,46.2561732 L9.89393208,46.2561732 C9.97393208,47.0661732 10.1139321,47.9061732 10.3039321,48.8061732 L11.7639321,48.8061732 C11.5339321,47.7461732 11.3939321,46.7561732 11.3239321,45.8061732 L11.5439321,45.7861732 C12.1839321,46.4161732 13.7139321,46.3161732 15.2439321,45.8161732 C16.8939321,45.2761732 18.5539321,44.2761732 19.0839321,43.2561732 C19.3139321,42.8261732 19.3339321,42.3961732 19.0639321,41.9861732 C18.5439321,41.2061732 16.5439321,41.5061732 14.7239321,42.1861732 C13.1039321,42.7961732 11.6339321,43.7161732 11.4739321,44.4461732 L11.2639321,44.4561732 C11.2339321,43.0061732 11.3939321,41.6261732 11.6939321,40.2161732 L11.7539321,40.2261732 C14.3539321,40.2961732 16.6739321,40.2261732 19.2039321,39.1761732 C19.6639321,38.9861732 20.1339321,38.7561732 20.6139321,38.4961732 C22.2439321,37.6361732 23.8539321,36.3961732 24.6139321,34.8161732 C25.0439321,33.9761732 25.2539321,32.8461732 24.7639321,32.0061732" id="Fill-1" fill="#5EBB53"></path>
        </g>
    </g>
</svg>