<?xml version="1.0" encoding="UTF-8"?>
<svg width="29px" height="55px" viewBox="0 0 29 55" version="1.1" xmlns="http://www.w3.org/2000/svg" xmlns:xlink="http://www.w3.org/1999/xlink">
    <!-- Generator: sketchtool 48.2 (47327) - http://www.bohemiancoding.com/sketch -->
    <title>5905F813-F046-4203-8D69-E96FC40478D4</title>
    <desc>Created with sketchtool.</desc>
    <defs>
        <polygon id="path-1" points="40.4358889 42.8670775 16.303 42.8670775 0.150888889 0.362535211 26.6295556 0.362535211"></polygon>
    </defs>
    <g id="Main-cards-2" stroke="none" stroke-width="1" fill="none" fill-rule="evenodd" transform="translate(-262.000000, -601.000000)">
        <g id="Music" transform="translate(262.000000, 601.000000)">
            <g id="Group-3" transform="translate(1.555556, 0.034085)">
                <mask id="mask-2" fill="white">
                    <use xlink:href="#path-1"></use>
                </mask>
                <g id="Clip-2"></g>
                <polygon id="Fill-1" mask="url(#mask-2)" points="40.4358889 42.8670775 16.303 42.8670775 0.150888889 0.362535211 26.6295556 0.362535211"></polygon>
            </g>
            <polygon id="Fill-4" fill="#626161" points="0 54.6467606 28.1847222 54.6467606 28.1847222 0 0 0"></polygon>
            <g id="Group-21" transform="translate(2.722222, 3.520000)">
                <path d="M20.5370667,9.45008451 C20.5370667,4.40751408 16.4327333,0.320471831 11.3701778,0.320471831 C6.30762222,0.320471831 2.20328889,4.40751408 2.20328889,9.45008451 C2.20328889,14.4926549 6.30762222,18.5796972 11.3701778,18.5796972 C16.4327333,18.5796972 20.5370667,14.4926549 20.5370667,9.45008451" id="Fill-5" fill="#FFFFFF"></path>
                <path d="M11.3700222,1.92825352 C7.19918889,1.92825352 3.8178,5.29564789 3.8178,9.45008451 C3.8178,13.6045211 7.19918889,16.9719155 11.3700222,16.9719155 C15.5412444,16.9719155 18.9226333,13.6045211 18.9226333,9.45008451 C18.9226333,5.29564789 15.5412444,1.92825352 11.3700222,1.92825352 Z" id="Fill-7" fill="#AB393D"></path>
                <path d="M17.0773167,9.45008451 C17.0773167,6.31121127 14.5223167,3.76610563 11.3699833,3.76610563 C8.21842778,3.76610563 5.66303889,6.31121127 5.66303889,9.45008451 C5.66303889,12.5889577 8.21842778,15.1340634 11.3699833,15.1340634 C14.5223167,15.1340634 17.0773167,12.5889577 17.0773167,9.45008451" id="Fill-9" fill="#FFFFFF"></path>
                <path d="M14.1956111,9.45008451 C14.1956111,7.89575352 12.9305556,6.63617606 11.3699444,6.63617606 C9.81011111,6.63617606 8.54505556,7.89575352 8.54505556,9.45008451 C8.54505556,11.0044155 9.81011111,12.263993 11.3699444,12.263993 C12.9305556,12.263993 14.1956111,11.0044155 14.1956111,9.45008451" id="Fill-11" fill="#858585"></path>
                <path d="M22.3690833,33.881007 C22.3690833,27.831007 17.4445833,22.9267113 11.3701389,22.9267113 C5.29608333,22.9267113 0.371583333,27.831007 0.371583333,33.881007 C0.371583333,39.931007 5.29608333,44.8353028 11.3701389,44.8353028 C17.4445833,44.8353028 22.3690833,39.931007 22.3690833,33.881007" id="Fill-13" fill="#FFFFFF"></path>
                <path d="M20.4318722,33.881007 C20.4318722,28.8965352 16.3745944,24.8559718 11.3699833,24.8559718 C6.36576111,24.8559718 2.30848333,28.8965352 2.30848333,33.881007 C2.30848333,38.8654789 6.36576111,42.9060423 11.3699833,42.9060423 C16.3745944,42.9060423 20.4318722,38.8654789 20.4318722,33.881007" id="Fill-15" fill="#AB393D"></path>
                <path d="M18.2177722,33.881007 C18.2177722,30.1142817 15.1521611,27.0613944 11.3702167,27.0613944 C7.58827222,27.0613944 4.52266111,30.1142817 4.52266111,33.881007 C4.52266111,37.6477324 7.58827222,40.7006197 11.3702167,40.7006197 C15.1521611,40.7006197 18.2177722,37.6477324 18.2177722,33.881007" id="Fill-17" fill="#FFFFFF"></path>
                <path d="M14.7603167,33.881007 C14.7603167,32.0164296 13.2424833,30.5047042 11.3699833,30.5047042 C9.49826111,30.5047042 7.98003889,32.0164296 7.98003889,33.881007 C7.98003889,35.7455845 9.49826111,37.2573099 11.3699833,37.2573099 C13.2424833,37.2573099 14.7603167,35.7455845 14.7603167,33.881007" id="Fill-19" fill="#858585"></path>
            </g>
        </g>
    </g>
</svg>