<?xml version="1.0" encoding="UTF-8"?>
<svg width="1024px" height="1024px" viewBox="0 0 1024 1024" version="1.1" xmlns="http://www.w3.org/2000/svg" xmlns:xlink="http://www.w3.org/1999/xlink">
    <!-- Generator: Sketch 64 (93537) - https://sketch.com -->
    <title>App Icon issie pages 1024 x 1024 with border</title>
    <desc>Created with Sketch.</desc>
    <defs>
        <path d="M352.128083,0 L657.871917,0 C759.2675,0 809.952667,0 864.53475,17.2541667 C924.12475,38.9439167 971.056083,85.87525 992.745833,145.46525 C1010,200.038917 1010,250.740917 1010,352.128083 L1010,657.871917 C1010,759.2675 1010,809.952667 992.745833,864.53475 C971.056083,924.12475 924.12475,971.056083 864.53475,992.737417 C809.952667,1010 759.2675,1010 657.871917,1010 L352.128083,1010 C250.7325,1010 200.038917,1010 145.46525,992.737417 C85.87525,971.056083 38.9439167,924.12475 17.2541667,864.53475 C0,809.952667 0,759.2675 0,657.871917 L0,352.128083 C0,250.740917 0,200.038917 17.2541667,145.46525 C38.9439167,85.87525 85.87525,38.9439167 145.46525,17.2541667 C200.038917,0 250.7325,0 352.128083,0 L352.128083,0" id="path-1"></path>
        <linearGradient x1="2.34574298%" y1="97.6241727%" x2="100%" y2="0.031565239%" id="linearGradient-3">
            <stop stop-color="#00B9EF" offset="0%"></stop>
            <stop stop-color="#00B9EF" offset="100%"></stop>
        </linearGradient>
        <polygon id="path-4" points="0.195576841 0.221342428 269.300577 0.221342428 269.300577 134.130925 0.195576841 134.130925 0.195576841 0.221342428"></polygon>
    </defs>
    <g id="App-Icon-issie-pages-1024-x-1024-with-border" stroke="none" stroke-width="1" fill="none" fill-rule="evenodd">
        <rect fill="#ECECEC" x="0" y="0" width="1024" height="1024"></rect>
        <g id="1024" transform="translate(7.000000, 7.000000)">
            <mask id="mask-2" fill="white">
                <use xlink:href="#path-1"></use>
            </mask>
            <use id="Icon-Shape" fill="#D6D6D6" xlink:href="#path-1"></use>
            <g id="Icon" mask="url(#mask-2)">
                <rect id="Base" fill="url(#linearGradient-3)" x="0" y="0" width="1009.65341" height="1009.33466"></rect>
                <g id="Page-1" transform="translate(117.460297, 723.752796)">
                    <path d="M374.308972,134.863651 C374.308972,134.863651 344.988061,187.185058 405.218365,271.571157 C465.440151,355.961859 510.360553,316.695494 510.360553,316.695494 L497.980613,255.543413 L478.062835,162.676367 L374.308972,134.863651" id="Fill-3" fill="#FAA919"></path>
                    <path d="M551.283892,264.101821 C431.817371,304.923062 268.994219,229.995457 208.781217,166.966809 C105.413292,58.7145229 31.593079,133.956973 3.86075304,147.625575 C-0.587758452,149.840344 -0.82762917,151.517706 3.13023767,152.245106 C24.7240539,156.332659 96.4781081,175.663036 117.82115,255.335025 C207.789024,591.258013 489.942407,619.979447 638.38422,585.769944 C711.452112,568.925754 729.098965,537.853841 679.614726,552.922959 C637.620995,565.70131 605.358384,554.285477 604.93861,533.29945 C604.251708,499.67621 653.141721,493.585594 776.075464,430.030395 C972.507775,328.503843 893.18689,92.1260574 893.18689,92.1260574 C893.18689,92.1260574 778.850332,186.308043 551.283892,264.101821 Z" id="Fill-5" fill="#EEF4FA"></path>
                    <g id="Group-9" transform="translate(375.524755, 0.000000)">
                        <mask id="mask-5" fill="white">
                            <use xlink:href="#path-4"></use>
                        </mask>
                        <g id="Clip-8"></g>
                        <path d="M269.300577,87.558282 C269.300577,87.558282 218.640114,89.4442113 165.507323,70.0775129 C143.803319,62.1431387 116.665532,27.0244399 93.8632093,15.0577691 C20.9429123,-23.2804806 4.85055571,24.7882665 4.85055571,24.7882665 L8.35005408,35.3494709 C2.81399885,44.8554529 -0.209710039,56.1979709 0.239399663,68.2813897 C1.21765842,95.1783346 19.0353077,117.064096 42.2867397,122.717394 C55.2531148,127.436707 89.8923681,137.512958 139.890284,132.991218 C204.126311,127.167289 269.300577,87.558282 269.300577,87.558282" id="Fill-7" fill="#FAA919" mask="url(#mask-5)"></path>
                    </g>
                    <path d="M239.91839,39.386048 C239.91839,39.386048 281.431174,86.3446746 374.619829,117.791056 C467.817495,149.228555 521.826911,144.16587 586.440896,192.065978 C637.855482,230.160465 669.457455,286.036523 669.457455,286.036523 C669.457455,286.036523 614.57859,214.83918 500.469113,205.775197 C386.350626,196.697891 237.79207,94.1207816 239.91839,39.386048" id="Fill-10" fill="#FAA919"></path>
                </g>
                <g id="Page-1" transform="translate(242.584139, 99.398496)">
                    <path d="M228.265615,200.502344 C223.166208,225.727022 211.250518,250.319506 200.768079,273.709523 C189.7634,298.272195 183.156635,323.882534 176.747359,349.911023 C171.687139,370.464577 168.426048,391.134327 174.770917,411.84077 C175.977191,415.77994 177.500068,419.568898 179.289109,423.219873 C181.154197,427.037497 183.311833,430.702232 185.704205,434.226693 C195.319089,448.402889 208.71226,460.315573 222.220666,470.64739 C222.284297,470.695932 222.347152,470.745621 222.409231,470.792634 C222.472862,470.841176 222.538045,470.888571 222.601288,470.936731 C222.793345,471.084268 222.985402,471.230277 223.177848,471.376668 L219.177239,468.339157 C220.394377,469.262985 221.829568,470.368751 223.446728,471.580391 C223.498719,471.617849 223.549934,471.656836 223.601925,471.696587 C230.840345,477.117628 241.624643,484.616422 252.733693,487.797266 C253.804557,488.103425 254.879689,488.370598 255.953657,488.591904 C262.412984,489.919357 268.966982,489.24703 274.218095,488.226882 C279.77262,487.147108 283.869062,485.678232 284.85612,485.770348 C296.116487,483.802292 306.525207,478.805898 316.426819,473.353515 C337.405665,461.803559 357.569723,448.832506 378.979242,438.035525 C399.864581,427.503042 422.48115,421.1318 445.036416,415.118698 C466.340401,409.440422 478.199444,404.706614 497.899849,394.583872 C504.821277,391.026159 513.40332,385.155243 512.150875,376.238791 C510.950809,367.701884 501.061225,365.869134 493.861605,366.844562 C472.198338,369.780019 462.330869,379.192977 441.222433,384.341877 C420.001479,389.516003 379.015325,398.941957 376.392097,390.564818 C373.770032,382.189972 439.285954,345.767364 470.325878,322.82187 C484.132651,312.616951 506.18236,305.374244 517.612281,292.350062 C522.066455,287.277988 527.293124,280.144215 525.512619,273.003943 C522.777648,262.037639 509.468671,260.241583 500.664695,264.753702 C488.067688,271.214002 471.213996,281.739223 460.056447,290.245553 C448.145802,299.328654 429.925983,310.460077 417.224605,317.319416 C404.524779,324.178373 375.565281,350.147235 369.986313,341.979936 C364.40618,333.813783 408.015951,301.647206 411.616925,298.207217 C425.737585,284.72437 440.102294,271.484615 455.213892,259.080013 C467.255292,249.195776 513.631073,224.870082 497.443179,203.95724 C487.40189,190.987715 463.173981,209.741009 454.564778,216.013256 C433.72367,231.193165 412.457708,246.342879 392.665737,262.801317 C385.773408,268.533868 379.204278,274.629147 372.610705,280.687733 C370.03132,283.05865 344.720519,301.181661 338.784208,296.021677 C332.849061,290.860546 355.580864,268.933289 362.568252,259.065488 C373.34673,243.842388 385.38231,229.406664 398.325408,215.922288 C408.175804,205.660417 422.450887,196.35601 429.637315,183.942235 C435.446364,173.909314 430.596437,158.395726 416.876574,160.501382 C401.517436,162.860068 387.977215,178.261665 377.504864,188.361474 C356.511662,208.607723 339.16871,231.865874 319.228137,253.001169 C310.757836,261.978395 250.41698,320.647797 250.898092,280.232508 C251.053678,267.112388 258.725875,254.366463 262.874309,242.164438 C268.371799,225.988461 272.218761,208.300035 265.824617,191.794202 C262.081637,182.12936 253.396387,169.048991 241.992074,167.143237 C227.875293,164.785316 229.887819,192.474173 228.265615,200.502344" id="Fill-1" fill="#FEFEFE"></path>
                    <path d="M43.1449499,295.312998 C68.0875077,299.970406 92.5027969,311.354672 115.712039,321.343628 C140.085117,331.830444 165.428685,337.968052 191.181933,343.905292 C211.518522,348.592526 231.944057,351.504744 252.26934,344.950723 C256.136228,343.704924 259.850098,342.149013 263.425274,340.333082 C267.162888,338.439146 270.745225,336.259953 274.186604,333.851331 C288.027877,324.170193 299.583314,310.798307 309.579559,297.336561 C309.626293,297.273086 309.674158,297.210375 309.720138,297.14843 C309.766873,297.084954 309.812476,297.019949 309.858834,296.957239 C310.002052,296.766048 310.142632,296.574475 310.284342,296.382902 L307.346487,300.368848 C308.240093,299.156316 309.309706,297.725826 310.481832,296.114852 C310.518014,296.062848 310.555703,296.011609 310.594146,295.959605 C315.836681,288.747887 323.077485,278.011758 326.056044,267.018286 C326.343234,265.958324 326.591604,264.895303 326.794371,263.833429 C328.012101,257.448803 327.256814,250.999937 326.176272,245.840844 C325.033542,240.382728 323.527114,236.367721 323.604377,235.393795 C321.504348,224.325376 316.431036,214.141406 310.915632,204.463327 C299.231299,183.958494 286.157374,164.276546 275.209106,143.336563 C264.529937,122.908971 257.928715,100.714394 251.681015,78.5752616 C245.780807,57.6643393 240.946067,46.0472028 230.68713,26.7809039 C227.081427,20.0123666 221.171797,11.6408854 212.398182,13.005223 C203.998442,14.3118211 202.33146,24.0843486 203.394665,31.1641447 C206.595212,52.4696848 216.015569,62.0563748 221.390016,82.781842 C226.791975,103.618582 236.6646,143.869985 228.441998,146.576865 C220.222035,149.28298 183.385216,85.2520274 160.323715,54.9979922 C150.066663,41.5412175 142.614046,19.9183007 129.611353,8.84452844 C124.54784,4.52935166 117.440455,-0.517321201 110.425408,1.34067118 C99.6520169,4.19591487 98.0690803,17.3372246 102.642259,25.947312 C109.189587,38.2665012 119.805438,54.7211478 128.35028,65.5922578 C137.473648,77.1971581 148.706091,94.9893758 155.649152,107.406072 C162.59146,119.821239 188.604007,147.980206 180.630907,153.597009 C172.65856,159.21496 140.327457,116.708653 136.884947,113.210243 C123.391543,99.4919195 110.134826,85.5288717 97.69106,70.8182677 C87.7758468,59.0959762 63.1359313,13.7501025 42.7454468,30.0070578 C30.1007987,40.090844 48.9328444,63.6925858 55.2385853,72.085098 C70.4996015,92.4017992 85.7372506,113.136444 102.244641,132.401213 C107.993716,139.109334 114.096313,145.493578 120.163106,151.903059 C122.537134,154.4111 140.763518,179.088864 135.759554,185.013867 C130.754836,190.937341 108.814205,168.856331 98.9864297,162.114178 C83.8249124,151.714545 69.4216971,140.064141 55.9441228,127.506345 C45.6870706,117.948716 36.3119403,104.017406 23.9706883,97.1161824 C13.9966803,91.5376167 -1.23041582,96.5429924 1.03921372,110.032269 C3.58208827,125.133285 18.9588096,138.252034 29.0651059,148.424915 C49.3233021,168.816946 72.499755,185.569085 93.6198978,204.911096 C102.590626,213.12733 161.288929,271.734964 121.434732,271.849296 C108.496487,271.886769 95.8213104,264.512157 83.7321976,260.601922 C67.7057185,255.419886 50.211631,251.886298 34.0283658,258.428083 C24.5522291,262.25687 11.7779309,271.006527 10.0604447,282.272254 C7.93516387,296.21733 35.2068998,293.831269 43.1449499,295.312998 Z" id="Stroke-3" stroke="#FEFEFE" stroke-width="9.029723"></path>
                </g>
            </g>
        </g>
    </g>
</svg>